<svg xmlns="http://www.w3.org/2000/svg" viewBox="0 0 160 200">
  <ellipse cx="80" cy="186" rx="33" ry="6" fill="#000" opacity=".32"/>
  <rect x="56" y="138" width="18" height="26" rx="9" fill="#15803D"/>
  <rect x="86" y="138" width="18" height="26" rx="9" fill="#15803D"/>
  <rect x="34" y="96" width="16" height="38" rx="8" fill="#15803D"/>
  <rect x="110" y="96" width="16" height="38" rx="8" fill="#15803D"/>
  <rect x="28" y="86" width="26" height="18" rx="9" fill="#16A34A"/>
  <rect x="106" y="86" width="26" height="18" rx="9" fill="#16A34A"/>
  <rect x="50" y="86" width="60" height="58" rx="20" fill="#16A34A"/>
  <rect x="58" y="96" width="20" height="22" rx="6" fill="#4ADE80" opacity=".55"/>
  <rect x="82" y="96" width="20" height="22" rx="6" fill="#4ADE80" opacity=".55"/>
  <rect x="41" y="26" width="78" height="64" rx="32" fill="#22C55E"/>
  <ellipse cx="41" cy="56" rx="8" ry="11" fill="#15803D"/>
  <ellipse cx="119" cy="56" rx="8" ry="11" fill="#15803D"/>
  <rect x="76" y="10" width="8" height="20" rx="4" fill="#166534"/>
  <circle cx="80" cy="10" r="6.5" fill="#BBF7D0"/>
  <rect x="53" y="48" width="54" height="26" rx="13" fill="#052E16"/>
  <ellipse cx="68" cy="61" rx="7.5" ry="8.5" fill="#DCFCE7"/>
  <ellipse cx="92" cy="61" rx="7.5" ry="8.5" fill="#DCFCE7"/>
  <circle cx="66" cy="58" r="2.3" fill="#fff"/>
  <circle cx="90" cy="58" r="2.3" fill="#fff"/>
  <path d="M71 72 Q80 79 89 72" fill="none" stroke="#86EFAC" stroke-width="1.8" stroke-linecap="round"/>
  </svg>
