<svg xmlns="http://www.w3.org/2000/svg" viewBox="0 0 160 200">
  <defs>
  <linearGradient id="robot_r8_gold" x1="0" y1="0" x2="0" y2="1">
  <stop offset="0%" stop-color="#FDE68A"/>
  <stop offset="55%" stop-color="#F5E942"/>
  <stop offset="100%" stop-color="#CA8A04"/>
  </linearGradient>
  <radialGradient id="robot_r8_g8" cx="50%" cy="40%" r="62%">
  <stop offset="0%" stop-color="#F5E942" stop-opacity=".38"/>
  <stop offset="100%" stop-color="#F5E942" stop-opacity="0"/>
  </radialGradient>
  </defs>
  <circle cx="80" cy="98" r="82" fill="url(#robot_r8_g8)"/>
  <ellipse cx="80" cy="186" rx="36" ry="6" fill="#000" opacity=".32"/>
  <rect x="52" y="138" width="20" height="26" rx="10" fill="#CA8A04"/>
  <rect x="88" y="138" width="20" height="26" rx="10" fill="#CA8A04"/>
  <rect x="26" y="90" width="18" height="46" rx="9" fill="#CA8A04"/>
  <rect x="116" y="90" width="18" height="46" rx="9" fill="#CA8A04"/>
  <rect x="20" y="78" width="34" height="22" rx="11" fill="url(#robot_r8_gold)"/>
  <rect x="106" y="78" width="34" height="22" rx="11" fill="url(#robot_r8_gold)"/>
  <rect x="44" y="78" width="72" height="66" rx="20" fill="url(#robot_r8_gold)"/>
  <path d="M80 96 L86 110 H74 Z" fill="#78350F"/>
  <circle cx="80" cy="128" r="8" fill="#FFFBEB"/>
  <rect x="34" y="20" width="92" height="64" rx="32" fill="url(#robot_r8_gold)"/>
  <path d="M58 18 L80 4 L102 18" fill="#FDE68A" stroke="#CA8A04" stroke-width="1.5"/>
  <circle cx="80" cy="12" r="5" fill="#FFFBEB"/>
  <ellipse cx="34" cy="50" rx="10" ry="12" fill="#CA8A04"/>
  <ellipse cx="126" cy="50" rx="10" ry="12" fill="#CA8A04"/>
  <rect x="46" y="42" width="68" height="30" rx="15" fill="#1C1408"/>
  <ellipse cx="68" cy="57" rx="9" ry="10" fill="#FFFBEB"/>
  <ellipse cx="92" cy="57" rx="9" ry="10" fill="#FFFBEB"/>
  <circle cx="66" cy="54" r="2.7" fill="#F5E942"/>
  <circle cx="90" cy="54" r="2.7" fill="#F5E942"/>
  <path d="M69 72 Q80 82 91 72" fill="none" stroke="#FDE68A" stroke-width="2.2" stroke-linecap="round"/>
  <rect x="62" y="36" width="12" height="3" rx="1.5" fill="#fff" opacity=".55"/>
  </svg>
